<mxfile host="app.diagrams.net" modified="2021-06-29T04:38:29.041Z" agent="5.0 (Macintosh; Intel Mac OS X 10_15_7) AppleWebKit/537.36 (KHTML, like Gecko) Chrome/91.0.4472.114 Safari/537.36" etag="CSQkXOSKyWss8RnNwXxs" version="14.6.9" type="github" pages="2">
  <diagram name="Page-1" id="03018318-947c-dd8e-b7a3-06fadd420f32">
    <mxGraphModel dx="3165" dy="1327" grid="1" gridSize="10" guides="1" tooltips="1" connect="1" arrows="1" fold="1" page="1" pageScale="1" pageWidth="1100" pageHeight="850" background="none" math="0" shadow="0">
      <root>
        <mxCell id="0" />
        <mxCell id="1" parent="0" />
        <mxCell id="677b7b8949515195-1" value="" style="whiteSpace=wrap;html=1;rounded=0;shadow=0;labelBackgroundColor=none;strokeColor=#000000;strokeWidth=1;fillColor=none;fontFamily=Verdana;fontSize=12;fontColor=#000000;align=center;comic=1;" parent="1" vertex="1">
          <mxGeometry x="-100" y="20" width="1180" height="810" as="geometry" />
        </mxCell>
        <mxCell id="677b7b8949515195-2" value="Joby Weights and Balances" style="whiteSpace=wrap;html=1;rounded=0;shadow=0;labelBackgroundColor=none;strokeWidth=1;fontFamily=Verdana;fontSize=28;align=center;comic=1;" parent="1" vertex="1">
          <mxGeometry x="-80" y="60" width="430" height="50" as="geometry" />
        </mxCell>
        <mxCell id="677b7b8949515195-3" value="Search" style="strokeWidth=1;shadow=0;dashed=0;align=center;html=1;shape=mxgraph.mockup.forms.searchBox;strokeColor=#999999;mainText=;strokeColor2=#008cff;fontColor=#666666;fontSize=17;align=left;spacingLeft=3;rounded=0;labelBackgroundColor=none;comic=1;" parent="1" vertex="1">
          <mxGeometry x="840" y="95" width="220" height="30" as="geometry" />
        </mxCell>
        <mxCell id="677b7b8949515195-4" value="Topic 1" style="text;html=1;points=[];align=left;verticalAlign=top;spacingTop=-4;fontSize=14;fontFamily=Verdana" parent="1" vertex="1">
          <mxGeometry x="780" y="40" width="60" height="20" as="geometry" />
        </mxCell>
        <mxCell id="677b7b8949515195-5" value="Topic 2" style="text;html=1;points=[];align=left;verticalAlign=top;spacingTop=-4;fontSize=14;fontFamily=Verdana" parent="1" vertex="1">
          <mxGeometry x="860" y="40" width="60" height="20" as="geometry" />
        </mxCell>
        <mxCell id="677b7b8949515195-6" value="Topic 3" style="text;html=1;points=[];align=left;verticalAlign=top;spacingTop=-4;fontSize=14;fontFamily=Verdana" parent="1" vertex="1">
          <mxGeometry x="930" y="40" width="60" height="20" as="geometry" />
        </mxCell>
        <mxCell id="677b7b8949515195-7" value="Topic 4" style="text;html=1;points=[];align=left;verticalAlign=top;spacingTop=-4;fontSize=14;fontFamily=Verdana" parent="1" vertex="1">
          <mxGeometry x="1000" y="40" width="60" height="20" as="geometry" />
        </mxCell>
        <mxCell id="677b7b8949515195-8" value="" style="whiteSpace=wrap;html=1;rounded=0;shadow=0;labelBackgroundColor=none;strokeWidth=1;fillColor=none;fontFamily=Verdana;fontSize=12;align=center;comic=1;" parent="1" vertex="1">
          <mxGeometry x="-80" y="160" width="300" height="660" as="geometry" />
        </mxCell>
        <mxCell id="677b7b8949515195-9" value="" style="line;strokeWidth=1;html=1;rounded=0;shadow=0;labelBackgroundColor=none;fillColor=none;fontFamily=Verdana;fontSize=14;fontColor=#000000;align=center;comic=1;" parent="1" vertex="1">
          <mxGeometry x="-80" y="140" width="1160" height="10" as="geometry" />
        </mxCell>
        <mxCell id="677b7b8949515195-10" value="" style="whiteSpace=wrap;html=1;rounded=0;shadow=0;labelBackgroundColor=none;strokeWidth=1;fillColor=none;fontFamily=Verdana;fontSize=12;align=center;comic=1;" parent="1" vertex="1">
          <mxGeometry x="240" y="160" width="830" height="50" as="geometry" />
        </mxCell>
        <mxCell id="677b7b8949515195-27" value="&lt;span style=&quot;color: rgba(0 , 0 , 0 , 0.85) ; font-family: &amp;#34;webdings&amp;#34; ; font-size: 25px ; text-align: center&quot;&gt;&lt;/span&gt;Aircraft Top Level" style="text;html=1;points=[];align=left;verticalAlign=top;spacingTop=-4;fontSize=14;fontFamily=Verdana" parent="1" vertex="1">
          <mxGeometry x="-70" y="175" width="170" height="20" as="geometry" />
        </mxCell>
        <mxCell id="677b7b8949515195-28" value="&lt;div style=&quot;text-align: center&quot;&gt;&lt;br&gt;&lt;/div&gt;" style="text;html=1;points=[];align=left;verticalAlign=top;spacingTop=-4;fontSize=14;fontFamily=Verdana" parent="1" vertex="1">
          <mxGeometry x="-20" y="220" width="170" height="20" as="geometry" />
        </mxCell>
        <mxCell id="677b7b8949515195-30" value="Aircraft Fuselage" style="text;html=1;points=[];align=left;verticalAlign=top;spacingTop=-4;fontSize=14;fontFamily=Verdana" parent="1" vertex="1">
          <mxGeometry x="-27" y="222" width="170" height="20" as="geometry" />
        </mxCell>
        <mxCell id="677b7b8949515195-31" value="Aircraft Tail" style="text;html=1;points=[];align=left;verticalAlign=top;spacingTop=-4;fontSize=14;fontFamily=Verdana" parent="1" vertex="1">
          <mxGeometry x="-27" y="302" width="170" height="20" as="geometry" />
        </mxCell>
        <mxCell id="677b7b8949515195-32" value="&lt;span style=&quot;color: rgba(0 , 0 , 0 , 0.85) ; font-family: &amp;#34;webdings&amp;#34; ; font-size: 25px ; text-align: center&quot;&gt;&lt;/span&gt;Tail Cone Fairing INSTL" style="text;html=1;points=[];align=left;verticalAlign=top;spacingTop=-4;fontSize=14;fontFamily=Verdana" parent="1" vertex="1">
          <mxGeometry x="-1" y="338" width="170" height="20" as="geometry" />
        </mxCell>
        <mxCell id="677b7b8949515195-33" value="Tail Tip Fairing, LHS" style="text;html=1;points=[];align=left;verticalAlign=top;spacingTop=-4;fontSize=14;fontFamily=Verdana" parent="1" vertex="1">
          <mxGeometry x="4" y="482" width="170" height="20" as="geometry" />
        </mxCell>
        <mxCell id="677b7b8949515195-34" value="Tail Tip Fairing, RHS" style="text;html=1;points=[];align=left;verticalAlign=top;spacingTop=-4;fontSize=14;fontFamily=Verdana" parent="1" vertex="1">
          <mxGeometry x="4" y="516" width="170" height="20" as="geometry" />
        </mxCell>
        <mxCell id="677b7b8949515195-35" value="&lt;b&gt;Tail Cone Faring, ASSY&lt;/b&gt;" style="text;html=1;points=[];align=left;verticalAlign=top;spacingTop=-4;fontSize=14;fontFamily=Verdana" parent="1" vertex="1">
          <mxGeometry x="34" y="380" width="170" height="20" as="geometry" />
        </mxCell>
        <mxCell id="677b7b8949515195-36" value="Section 12" style="text;html=1;points=[];align=left;verticalAlign=top;spacingTop=-4;fontSize=14;fontFamily=Verdana" parent="1" vertex="1">
          <mxGeometry x="60" y="412" width="90" height="20" as="geometry" />
        </mxCell>
        <mxCell id="677b7b8949515195-37" value="Section 13" style="text;html=1;points=[];align=left;verticalAlign=top;spacingTop=-4;fontSize=14;fontFamily=Verdana" parent="1" vertex="1">
          <mxGeometry x="60" y="448" width="90" height="20" as="geometry" />
        </mxCell>
        <mxCell id="677b7b8949515195-38" value="Section 14" style="text;html=1;points=[];align=left;verticalAlign=top;spacingTop=-4;fontSize=14;fontFamily=Verdana" parent="1" vertex="1">
          <mxGeometry x="-27" y="550" width="170" height="20" as="geometry" />
        </mxCell>
        <mxCell id="677b7b8949515195-40" value="Aircraft Wing" style="text;html=1;points=[];align=left;verticalAlign=top;spacingTop=-4;fontSize=14;fontFamily=Verdana" parent="1" vertex="1">
          <mxGeometry x="-27" y="262" width="170" height="20" as="geometry" />
        </mxCell>
        <mxCell id="677b7b8949515195-41" value="Section 15" style="text;html=1;points=[];align=left;verticalAlign=top;spacingTop=-4;fontSize=14;fontFamily=Verdana" parent="1" vertex="1">
          <mxGeometry x="-27" y="586" width="170" height="20" as="geometry" />
        </mxCell>
        <mxCell id="tOML4vf1yikGhHRBAuAt-1" value="Aircraft Top Level&amp;nbsp;" style="strokeWidth=1;shadow=0;dashed=0;align=center;html=1;shape=mxgraph.mockup.navigation.anchor;fontSize=17;fontColor=#666666;fontStyle=1;" vertex="1" parent="1">
          <mxGeometry x="290" y="170" width="80" height="30" as="geometry" />
        </mxCell>
        <mxCell id="tOML4vf1yikGhHRBAuAt-2" value="&gt;" style="strokeWidth=1;shadow=0;dashed=0;align=center;html=1;shape=mxgraph.mockup.navigation.anchor;fontSize=24;fontColor=#aaaaaa;fontStyle=1;" vertex="1" parent="1">
          <mxGeometry x="410" y="170" width="20" height="30" as="geometry" />
        </mxCell>
        <mxCell id="tOML4vf1yikGhHRBAuAt-3" value="Aircraft Tail" style="strokeWidth=1;shadow=0;dashed=0;align=center;html=1;shape=mxgraph.mockup.navigation.anchor;fontSize=17;fontColor=#666666;fontStyle=1;" vertex="1" parent="1">
          <mxGeometry x="440" y="170" width="100" height="30" as="geometry" />
        </mxCell>
        <mxCell id="tOML4vf1yikGhHRBAuAt-4" value="&gt;" style="strokeWidth=1;shadow=0;dashed=0;align=center;html=1;shape=mxgraph.mockup.navigation.anchor;fontSize=24;fontColor=#aaaaaa;fontStyle=1;" vertex="1" parent="1">
          <mxGeometry x="550" y="170" width="20" height="30" as="geometry" />
        </mxCell>
        <mxCell id="tOML4vf1yikGhHRBAuAt-5" value="Tail Cone Fairing INSTL" style="strokeWidth=1;shadow=0;dashed=0;align=center;html=1;shape=mxgraph.mockup.navigation.anchor;fontSize=17;fontColor=#666666;fontStyle=1;" vertex="1" parent="1">
          <mxGeometry x="650" y="170" width="60" height="30" as="geometry" />
        </mxCell>
        <mxCell id="tOML4vf1yikGhHRBAuAt-6" value="&gt;" style="strokeWidth=1;shadow=0;dashed=0;align=center;html=1;shape=mxgraph.mockup.navigation.anchor;fontSize=24;fontColor=#aaaaaa;fontStyle=1;" vertex="1" parent="1">
          <mxGeometry x="780" y="170" width="20" height="30" as="geometry" />
        </mxCell>
        <mxCell id="tOML4vf1yikGhHRBAuAt-7" value="Tail Cone Fairing, ASSY" style="strokeWidth=1;shadow=0;dashed=0;align=center;html=1;shape=mxgraph.mockup.navigation.anchor;fontSize=17;fontColor=#008cff;fontStyle=1;" vertex="1" parent="1">
          <mxGeometry x="870" y="170" width="60" height="30" as="geometry" />
        </mxCell>
        <mxCell id="pIAOTzWEE5FoUwpktkdW-1" value="(Next Page)" style="text;html=1;resizable=0;autosize=1;align=center;verticalAlign=middle;points=[];fillColor=none;strokeColor=none;rounded=0;labelBackgroundColor=none;fontSize=16;" vertex="1" parent="1">
          <mxGeometry x="580" y="440" width="100" height="20" as="geometry" />
        </mxCell>
      </root>
    </mxGraphModel>
  </diagram>
  <diagram id="NeC20nPZvTjzc2Wmwskd" name="Page-2">
    <mxGraphModel dx="4265" dy="1327" grid="1" gridSize="10" guides="1" tooltips="1" connect="1" arrows="1" fold="1" page="1" pageScale="1" pageWidth="1100" pageHeight="850" math="0" shadow="0">
      <root>
        <mxCell id="4rSkHqEDvgj0Sk99-cNi-0" />
        <mxCell id="4rSkHqEDvgj0Sk99-cNi-1" parent="4rSkHqEDvgj0Sk99-cNi-0" />
        <mxCell id="NB-tD7L5gZntt5toGxeT-11" value="" style="shape=mxgraph.mockup.containers.marginRect;rectMarginTop=10;strokeColor=#666666;strokeWidth=1;dashed=0;rounded=1;arcSize=5;recursiveResize=0;fontSize=16;" vertex="1" parent="4rSkHqEDvgj0Sk99-cNi-1">
          <mxGeometry x="-1110" y="350" width="1050" height="460" as="geometry" />
        </mxCell>
        <mxCell id="NB-tD7L5gZntt5toGxeT-12" value="Sub-components" style="shape=rect;strokeColor=none;fillColor=#008cff;strokeWidth=1;dashed=0;rounded=1;arcSize=20;fontColor=#ffffff;fontSize=17;spacing=2;spacingTop=-2;align=left;autosize=1;spacingLeft=4;resizeWidth=0;resizeHeight=0;perimeter=none;" vertex="1" parent="NB-tD7L5gZntt5toGxeT-11">
          <mxGeometry x="5" width="150" height="30" as="geometry" />
        </mxCell>
        <mxCell id="NB-tD7L5gZntt5toGxeT-13" value="" style="strokeWidth=1;shadow=0;dashed=0;align=center;html=1;shape=mxgraph.mockup.containers.marginRect2;rectMarginTop=32;strokeColor=#666666;gradientColor=none;fontSize=16;" vertex="1" parent="NB-tD7L5gZntt5toGxeT-11">
          <mxGeometry x="19" y="50" width="1001" height="390" as="geometry" />
        </mxCell>
        <mxCell id="NB-tD7L5gZntt5toGxeT-17" value="" style="strokeWidth=1;shadow=0;dashed=0;align=center;html=1;shape=mxgraph.mockup.containers.topButton;rSize=5;strokeColor=#008cff;fillColor=#008cff;gradientColor=none;resizeWidth=1;movable=0;deletable=1;" vertex="1" parent="NB-tD7L5gZntt5toGxeT-13">
          <mxGeometry width="1000.9999999999999" height="7" relative="1" as="geometry">
            <mxPoint y="25" as="offset" />
          </mxGeometry>
        </mxCell>
        <mxCell id="-jhvTbmzh6505f0dfXLa-13" value="" style="shape=table;html=1;whiteSpace=wrap;startSize=0;container=1;collapsible=0;childLayout=tableLayout;" vertex="1" parent="NB-tD7L5gZntt5toGxeT-13">
          <mxGeometry x="11" y="50" width="969" height="320" as="geometry" />
        </mxCell>
        <mxCell id="-jhvTbmzh6505f0dfXLa-14" value="" style="shape=partialRectangle;html=1;whiteSpace=wrap;collapsible=0;dropTarget=0;pointerEvents=0;fillColor=#f5f5f5;top=0;left=0;bottom=0;right=0;points=[[0,0.5],[1,0.5]];portConstraint=eastwest;strokeColor=#666666;fontColor=#333333;" vertex="1" parent="-jhvTbmzh6505f0dfXLa-13">
          <mxGeometry width="969" height="53" as="geometry" />
        </mxCell>
        <mxCell id="-jhvTbmzh6505f0dfXLa-15" value="Title" style="shape=partialRectangle;html=1;whiteSpace=wrap;connectable=0;overflow=hidden;top=0;left=0;bottom=0;right=0;labelBackgroundColor=#ffffff;fillColor=#D4E1F5;" vertex="1" parent="-jhvTbmzh6505f0dfXLa-14">
          <mxGeometry width="100" height="53" as="geometry" />
        </mxCell>
        <mxCell id="-jhvTbmzh6505f0dfXLa-16" value="Description" style="shape=partialRectangle;html=1;whiteSpace=wrap;connectable=0;overflow=hidden;top=0;left=0;bottom=0;right=0;labelBackgroundColor=#ffffff;fillColor=#D4E1F5;" vertex="1" parent="-jhvTbmzh6505f0dfXLa-14">
          <mxGeometry x="100" width="220" height="53" as="geometry" />
        </mxCell>
        <mxCell id="-jhvTbmzh6505f0dfXLa-17" value="Revision" style="shape=partialRectangle;html=1;whiteSpace=wrap;connectable=0;overflow=hidden;top=0;left=0;bottom=0;right=0;labelBackgroundColor=#ffffff;fillColor=#D4E1F5;" vertex="1" parent="-jhvTbmzh6505f0dfXLa-14">
          <mxGeometry x="320" width="95" height="53" as="geometry" />
        </mxCell>
        <mxCell id="-jhvTbmzh6505f0dfXLa-18" value="Target Weight" style="shape=partialRectangle;html=1;whiteSpace=wrap;connectable=0;overflow=hidden;top=0;left=0;bottom=0;right=0;labelBackgroundColor=#ffffff;fillColor=#D4E1F5;" vertex="1" parent="-jhvTbmzh6505f0dfXLa-14">
          <mxGeometry x="415" width="139" height="53" as="geometry" />
        </mxCell>
        <mxCell id="-jhvTbmzh6505f0dfXLa-19" value="Weight" style="shape=partialRectangle;html=1;whiteSpace=wrap;connectable=0;overflow=hidden;top=0;left=0;bottom=0;right=0;labelBackgroundColor=#ffffff;fillColor=#D4E1F5;" vertex="1" parent="-jhvTbmzh6505f0dfXLa-14">
          <mxGeometry x="554" width="138" height="53" as="geometry" />
        </mxCell>
        <mxCell id="-jhvTbmzh6505f0dfXLa-20" value="Center of Gravity&lt;br&gt;(X/Y/Z)" style="shape=partialRectangle;html=1;whiteSpace=wrap;connectable=0;overflow=hidden;top=0;left=0;bottom=0;right=0;labelBackgroundColor=#ffffff;fillColor=#D4E1F5;" vertex="1" parent="-jhvTbmzh6505f0dfXLa-14">
          <mxGeometry x="692" width="139" height="53" as="geometry" />
        </mxCell>
        <mxCell id="-jhvTbmzh6505f0dfXLa-21" value="Weight Moment&lt;br&gt;(X/Y/Z)" style="shape=partialRectangle;html=1;whiteSpace=wrap;connectable=0;overflow=hidden;top=0;left=0;bottom=0;right=0;labelBackgroundColor=#ffffff;fillColor=#D4E1F5;" vertex="1" parent="-jhvTbmzh6505f0dfXLa-14">
          <mxGeometry x="831" width="138" height="53" as="geometry" />
        </mxCell>
        <mxCell id="-jhvTbmzh6505f0dfXLa-22" value="" style="shape=partialRectangle;html=1;whiteSpace=wrap;collapsible=0;dropTarget=0;pointerEvents=0;fillColor=none;top=0;left=0;bottom=0;right=0;points=[[0,0.5],[1,0.5]];portConstraint=eastwest;" vertex="1" parent="-jhvTbmzh6505f0dfXLa-13">
          <mxGeometry y="53" width="969" height="54" as="geometry" />
        </mxCell>
        <mxCell id="-jhvTbmzh6505f0dfXLa-23" value="&lt;span style=&quot;color: rgb(51 , 51 , 51) ; font-family: &amp;#34;roboto&amp;#34; , sans-serif ; letter-spacing: 0.39996px ; text-align: left&quot;&gt;202760-001&lt;/span&gt;" style="shape=partialRectangle;html=1;whiteSpace=wrap;connectable=0;overflow=hidden;fillColor=none;top=0;left=0;bottom=0;right=0;" vertex="1" parent="-jhvTbmzh6505f0dfXLa-22">
          <mxGeometry width="100" height="54" as="geometry" />
        </mxCell>
        <mxCell id="-jhvTbmzh6505f0dfXLa-24" value="&lt;span style=&quot;color: rgb(51 , 51 , 51) ; font-family: &amp;#34;roboto&amp;#34; , sans-serif ; letter-spacing: 0.39996px ; text-align: left&quot;&gt;ACCESS DOOR, TAIL CONE&lt;/span&gt;" style="shape=partialRectangle;html=1;whiteSpace=wrap;connectable=0;overflow=hidden;fillColor=none;top=0;left=0;bottom=0;right=0;" vertex="1" parent="-jhvTbmzh6505f0dfXLa-22">
          <mxGeometry x="100" width="220" height="54" as="geometry" />
        </mxCell>
        <mxCell id="-jhvTbmzh6505f0dfXLa-25" value="" style="shape=partialRectangle;html=1;whiteSpace=wrap;connectable=0;overflow=hidden;fillColor=none;top=0;left=0;bottom=0;right=0;" vertex="1" parent="-jhvTbmzh6505f0dfXLa-22">
          <mxGeometry x="320" width="95" height="54" as="geometry" />
        </mxCell>
        <mxCell id="-jhvTbmzh6505f0dfXLa-26" value="" style="shape=partialRectangle;html=1;whiteSpace=wrap;connectable=0;overflow=hidden;fillColor=none;top=0;left=0;bottom=0;right=0;" vertex="1" parent="-jhvTbmzh6505f0dfXLa-22">
          <mxGeometry x="415" width="139" height="54" as="geometry" />
        </mxCell>
        <mxCell id="-jhvTbmzh6505f0dfXLa-27" value="" style="shape=partialRectangle;html=1;whiteSpace=wrap;connectable=0;overflow=hidden;fillColor=none;top=0;left=0;bottom=0;right=0;" vertex="1" parent="-jhvTbmzh6505f0dfXLa-22">
          <mxGeometry x="554" width="138" height="54" as="geometry" />
        </mxCell>
        <mxCell id="-jhvTbmzh6505f0dfXLa-28" value="" style="shape=partialRectangle;html=1;whiteSpace=wrap;connectable=0;overflow=hidden;fillColor=none;top=0;left=0;bottom=0;right=0;" vertex="1" parent="-jhvTbmzh6505f0dfXLa-22">
          <mxGeometry x="692" width="139" height="54" as="geometry" />
        </mxCell>
        <mxCell id="-jhvTbmzh6505f0dfXLa-29" value="" style="shape=partialRectangle;html=1;whiteSpace=wrap;connectable=0;overflow=hidden;fillColor=none;top=0;left=0;bottom=0;right=0;" vertex="1" parent="-jhvTbmzh6505f0dfXLa-22">
          <mxGeometry x="831" width="138" height="54" as="geometry" />
        </mxCell>
        <mxCell id="-jhvTbmzh6505f0dfXLa-30" value="" style="shape=partialRectangle;html=1;whiteSpace=wrap;collapsible=0;dropTarget=0;pointerEvents=0;fillColor=none;top=0;left=0;bottom=0;right=0;points=[[0,0.5],[1,0.5]];portConstraint=eastwest;" vertex="1" parent="-jhvTbmzh6505f0dfXLa-13">
          <mxGeometry y="107" width="969" height="53" as="geometry" />
        </mxCell>
        <mxCell id="-jhvTbmzh6505f0dfXLa-31" value="201013-001&lt;span&gt;	&lt;/span&gt;" style="shape=partialRectangle;html=1;whiteSpace=wrap;connectable=0;overflow=hidden;fillColor=none;top=0;left=0;bottom=0;right=0;" vertex="1" parent="-jhvTbmzh6505f0dfXLa-30">
          <mxGeometry width="100" height="53" as="geometry" />
        </mxCell>
        <mxCell id="-jhvTbmzh6505f0dfXLa-32" value="&lt;div&gt;TAIL CONE FAIRING&lt;/div&gt;" style="shape=partialRectangle;html=1;whiteSpace=wrap;connectable=0;overflow=hidden;fillColor=none;top=0;left=0;bottom=0;right=0;" vertex="1" parent="-jhvTbmzh6505f0dfXLa-30">
          <mxGeometry x="100" width="220" height="53" as="geometry" />
        </mxCell>
        <mxCell id="-jhvTbmzh6505f0dfXLa-33" value="" style="shape=partialRectangle;html=1;whiteSpace=wrap;connectable=0;overflow=hidden;fillColor=none;top=0;left=0;bottom=0;right=0;" vertex="1" parent="-jhvTbmzh6505f0dfXLa-30">
          <mxGeometry x="320" width="95" height="53" as="geometry" />
        </mxCell>
        <mxCell id="-jhvTbmzh6505f0dfXLa-34" value="" style="shape=partialRectangle;html=1;whiteSpace=wrap;connectable=0;overflow=hidden;top=0;left=0;bottom=0;right=0;fillColor=none;" vertex="1" parent="-jhvTbmzh6505f0dfXLa-30">
          <mxGeometry x="415" width="139" height="53" as="geometry" />
        </mxCell>
        <mxCell id="-jhvTbmzh6505f0dfXLa-35" value="" style="shape=partialRectangle;html=1;whiteSpace=wrap;connectable=0;overflow=hidden;fillColor=none;top=0;left=0;bottom=0;right=0;" vertex="1" parent="-jhvTbmzh6505f0dfXLa-30">
          <mxGeometry x="554" width="138" height="53" as="geometry" />
        </mxCell>
        <mxCell id="-jhvTbmzh6505f0dfXLa-36" value="" style="shape=partialRectangle;html=1;whiteSpace=wrap;connectable=0;overflow=hidden;fillColor=none;top=0;left=0;bottom=0;right=0;" vertex="1" parent="-jhvTbmzh6505f0dfXLa-30">
          <mxGeometry x="692" width="139" height="53" as="geometry" />
        </mxCell>
        <mxCell id="-jhvTbmzh6505f0dfXLa-37" value="" style="shape=partialRectangle;html=1;whiteSpace=wrap;connectable=0;overflow=hidden;fillColor=none;top=0;left=0;bottom=0;right=0;" vertex="1" parent="-jhvTbmzh6505f0dfXLa-30">
          <mxGeometry x="831" width="138" height="53" as="geometry" />
        </mxCell>
        <mxCell id="-jhvTbmzh6505f0dfXLa-38" value="" style="shape=partialRectangle;html=1;whiteSpace=wrap;collapsible=0;dropTarget=0;pointerEvents=0;fillColor=none;top=0;left=0;bottom=0;right=0;points=[[0,0.5],[1,0.5]];portConstraint=eastwest;" vertex="1" parent="-jhvTbmzh6505f0dfXLa-13">
          <mxGeometry y="160" width="969" height="53" as="geometry" />
        </mxCell>
        <mxCell id="-jhvTbmzh6505f0dfXLa-39" value="201688-001&lt;span&gt;	&lt;/span&gt;" style="shape=partialRectangle;html=1;whiteSpace=wrap;connectable=0;overflow=hidden;fillColor=none;top=0;left=0;bottom=0;right=0;" vertex="1" parent="-jhvTbmzh6505f0dfXLa-38">
          <mxGeometry width="100" height="53" as="geometry" />
        </mxCell>
        <mxCell id="-jhvTbmzh6505f0dfXLa-40" value="&lt;div&gt;TAIL LIGHT MOUNT, LHD&lt;/div&gt;" style="shape=partialRectangle;html=1;whiteSpace=wrap;connectable=0;overflow=hidden;fillColor=none;top=0;left=0;bottom=0;right=0;" vertex="1" parent="-jhvTbmzh6505f0dfXLa-38">
          <mxGeometry x="100" width="220" height="53" as="geometry" />
        </mxCell>
        <mxCell id="-jhvTbmzh6505f0dfXLa-41" value="" style="shape=partialRectangle;html=1;whiteSpace=wrap;connectable=0;overflow=hidden;fillColor=none;top=0;left=0;bottom=0;right=0;" vertex="1" parent="-jhvTbmzh6505f0dfXLa-38">
          <mxGeometry x="320" width="95" height="53" as="geometry" />
        </mxCell>
        <mxCell id="-jhvTbmzh6505f0dfXLa-42" value="" style="shape=partialRectangle;html=1;whiteSpace=wrap;connectable=0;overflow=hidden;fillColor=none;top=0;left=0;bottom=0;right=0;" vertex="1" parent="-jhvTbmzh6505f0dfXLa-38">
          <mxGeometry x="415" width="139" height="53" as="geometry" />
        </mxCell>
        <mxCell id="-jhvTbmzh6505f0dfXLa-43" value="" style="shape=partialRectangle;html=1;whiteSpace=wrap;connectable=0;overflow=hidden;fillColor=none;top=0;left=0;bottom=0;right=0;" vertex="1" parent="-jhvTbmzh6505f0dfXLa-38">
          <mxGeometry x="554" width="138" height="53" as="geometry" />
        </mxCell>
        <mxCell id="-jhvTbmzh6505f0dfXLa-44" value="" style="shape=partialRectangle;html=1;whiteSpace=wrap;connectable=0;overflow=hidden;fillColor=none;top=0;left=0;bottom=0;right=0;" vertex="1" parent="-jhvTbmzh6505f0dfXLa-38">
          <mxGeometry x="692" width="139" height="53" as="geometry" />
        </mxCell>
        <mxCell id="-jhvTbmzh6505f0dfXLa-45" value="" style="shape=partialRectangle;html=1;whiteSpace=wrap;connectable=0;overflow=hidden;fillColor=none;top=0;left=0;bottom=0;right=0;" vertex="1" parent="-jhvTbmzh6505f0dfXLa-38">
          <mxGeometry x="831" width="138" height="53" as="geometry" />
        </mxCell>
        <mxCell id="-jhvTbmzh6505f0dfXLa-46" value="" style="shape=partialRectangle;html=1;whiteSpace=wrap;collapsible=0;dropTarget=0;pointerEvents=0;fillColor=none;top=0;left=0;bottom=0;right=0;points=[[0,0.5],[1,0.5]];portConstraint=eastwest;" vertex="1" parent="-jhvTbmzh6505f0dfXLa-13">
          <mxGeometry y="213" width="969" height="54" as="geometry" />
        </mxCell>
        <mxCell id="-jhvTbmzh6505f0dfXLa-47" value="" style="shape=partialRectangle;html=1;whiteSpace=wrap;connectable=0;overflow=hidden;fillColor=none;top=0;left=0;bottom=0;right=0;" vertex="1" parent="-jhvTbmzh6505f0dfXLa-46">
          <mxGeometry width="100" height="54" as="geometry" />
        </mxCell>
        <mxCell id="-jhvTbmzh6505f0dfXLa-48" value="" style="shape=partialRectangle;html=1;whiteSpace=wrap;connectable=0;overflow=hidden;fillColor=none;top=0;left=0;bottom=0;right=0;" vertex="1" parent="-jhvTbmzh6505f0dfXLa-46">
          <mxGeometry x="100" width="220" height="54" as="geometry" />
        </mxCell>
        <mxCell id="-jhvTbmzh6505f0dfXLa-49" value="" style="shape=partialRectangle;html=1;whiteSpace=wrap;connectable=0;overflow=hidden;fillColor=none;top=0;left=0;bottom=0;right=0;" vertex="1" parent="-jhvTbmzh6505f0dfXLa-46">
          <mxGeometry x="320" width="95" height="54" as="geometry" />
        </mxCell>
        <mxCell id="-jhvTbmzh6505f0dfXLa-50" value="" style="shape=partialRectangle;html=1;whiteSpace=wrap;connectable=0;overflow=hidden;fillColor=none;top=0;left=0;bottom=0;right=0;" vertex="1" parent="-jhvTbmzh6505f0dfXLa-46">
          <mxGeometry x="415" width="139" height="54" as="geometry" />
        </mxCell>
        <mxCell id="-jhvTbmzh6505f0dfXLa-51" value="" style="shape=partialRectangle;html=1;whiteSpace=wrap;connectable=0;overflow=hidden;fillColor=none;top=0;left=0;bottom=0;right=0;" vertex="1" parent="-jhvTbmzh6505f0dfXLa-46">
          <mxGeometry x="554" width="138" height="54" as="geometry" />
        </mxCell>
        <mxCell id="-jhvTbmzh6505f0dfXLa-52" value="" style="shape=partialRectangle;html=1;whiteSpace=wrap;connectable=0;overflow=hidden;fillColor=none;top=0;left=0;bottom=0;right=0;" vertex="1" parent="-jhvTbmzh6505f0dfXLa-46">
          <mxGeometry x="692" width="139" height="54" as="geometry" />
        </mxCell>
        <mxCell id="-jhvTbmzh6505f0dfXLa-53" value="" style="shape=partialRectangle;html=1;whiteSpace=wrap;connectable=0;overflow=hidden;fillColor=none;top=0;left=0;bottom=0;right=0;" vertex="1" parent="-jhvTbmzh6505f0dfXLa-46">
          <mxGeometry x="831" width="138" height="54" as="geometry" />
        </mxCell>
        <mxCell id="-jhvTbmzh6505f0dfXLa-54" value="" style="shape=partialRectangle;html=1;whiteSpace=wrap;collapsible=0;dropTarget=0;pointerEvents=0;fillColor=none;top=0;left=0;bottom=0;right=0;points=[[0,0.5],[1,0.5]];portConstraint=eastwest;" vertex="1" parent="-jhvTbmzh6505f0dfXLa-13">
          <mxGeometry y="267" width="969" height="53" as="geometry" />
        </mxCell>
        <mxCell id="-jhvTbmzh6505f0dfXLa-55" value="" style="shape=partialRectangle;html=1;whiteSpace=wrap;connectable=0;overflow=hidden;top=0;left=0;bottom=0;right=0;strokeColor=none;fillColor=#CCCCFF;" vertex="1" parent="-jhvTbmzh6505f0dfXLa-54">
          <mxGeometry width="100" height="53" as="geometry" />
        </mxCell>
        <mxCell id="-jhvTbmzh6505f0dfXLa-56" value="Rollups" style="shape=partialRectangle;html=1;whiteSpace=wrap;connectable=0;overflow=hidden;top=0;left=0;bottom=0;right=0;strokeColor=none;align=left;fillColor=#CCCCFF;" vertex="1" parent="-jhvTbmzh6505f0dfXLa-54">
          <mxGeometry x="100" width="220" height="53" as="geometry" />
        </mxCell>
        <mxCell id="-jhvTbmzh6505f0dfXLa-57" value="" style="shape=partialRectangle;html=1;whiteSpace=wrap;connectable=0;overflow=hidden;top=0;left=0;bottom=0;right=0;strokeColor=none;fillColor=#CCCCFF;" vertex="1" parent="-jhvTbmzh6505f0dfXLa-54">
          <mxGeometry x="320" width="95" height="53" as="geometry" />
        </mxCell>
        <mxCell id="-jhvTbmzh6505f0dfXLa-58" value="" style="shape=partialRectangle;html=1;whiteSpace=wrap;connectable=0;overflow=hidden;top=0;left=0;bottom=0;right=0;fillColor=#CCCCFF;" vertex="1" parent="-jhvTbmzh6505f0dfXLa-54">
          <mxGeometry x="415" width="139" height="53" as="geometry" />
        </mxCell>
        <mxCell id="-jhvTbmzh6505f0dfXLa-59" value="" style="shape=partialRectangle;html=1;whiteSpace=wrap;connectable=0;overflow=hidden;top=0;left=0;bottom=0;right=0;fillColor=#CCCCFF;" vertex="1" parent="-jhvTbmzh6505f0dfXLa-54">
          <mxGeometry x="554" width="138" height="53" as="geometry" />
        </mxCell>
        <mxCell id="-jhvTbmzh6505f0dfXLa-60" value="" style="shape=partialRectangle;html=1;whiteSpace=wrap;connectable=0;overflow=hidden;top=0;left=0;bottom=0;right=0;fillColor=#CCCCFF;" vertex="1" parent="-jhvTbmzh6505f0dfXLa-54">
          <mxGeometry x="692" width="139" height="53" as="geometry" />
        </mxCell>
        <mxCell id="-jhvTbmzh6505f0dfXLa-61" value="" style="shape=partialRectangle;html=1;whiteSpace=wrap;connectable=0;overflow=hidden;top=0;left=0;bottom=0;right=0;fillColor=#CCCCFF;" vertex="1" parent="-jhvTbmzh6505f0dfXLa-54">
          <mxGeometry x="831" width="138" height="53" as="geometry" />
        </mxCell>
        <mxCell id="NB-tD7L5gZntt5toGxeT-14" value="Manufacturing" style="strokeColor=inherit;fillColor=inherit;gradientColor=inherit;strokeWidth=1;shadow=0;dashed=0;align=center;html=1;shape=mxgraph.mockup.containers.rrect;rSize=0;fontSize=17;fontColor=#666666;gradientColor=none;" vertex="1" parent="NB-tD7L5gZntt5toGxeT-11">
          <mxGeometry width="120" height="25" relative="1" as="geometry">
            <mxPoint x="194" y="50" as="offset" />
          </mxGeometry>
        </mxCell>
        <mxCell id="NB-tD7L5gZntt5toGxeT-15" value="Mass" style="strokeWidth=1;shadow=0;dashed=0;align=center;html=1;shape=mxgraph.mockup.containers.rrect;rSize=0;fontSize=17;fontColor=#ffffff;strokeColor=#008cff;fillColor=#008cff;" vertex="1" parent="NB-tD7L5gZntt5toGxeT-11">
          <mxGeometry width="60" height="25" relative="1" as="geometry">
            <mxPoint x="40" y="50" as="offset" />
          </mxGeometry>
        </mxCell>
        <mxCell id="NB-tD7L5gZntt5toGxeT-16" value="Maturity" style="strokeColor=inherit;fillColor=inherit;gradientColor=inherit;strokeWidth=1;shadow=0;dashed=0;align=center;html=1;shape=mxgraph.mockup.containers.rrect;rSize=0;fontSize=17;fontColor=#666666;gradientColor=none;" vertex="1" parent="NB-tD7L5gZntt5toGxeT-11">
          <mxGeometry width="70" height="25" relative="1" as="geometry">
            <mxPoint x="110" y="50" as="offset" />
          </mxGeometry>
        </mxCell>
        <mxCell id="4rSkHqEDvgj0Sk99-cNi-70" value="201689-001 Tail Cone Fairing, Assy Revision: A" style="text;html=1;resizable=0;autosize=1;align=left;verticalAlign=middle;points=[];fillColor=none;strokeColor=none;rounded=0;fontSize=16;" vertex="1" parent="4rSkHqEDvgj0Sk99-cNi-1">
          <mxGeometry x="-1117.5" y="30" width="350" height="20" as="geometry" />
        </mxCell>
        <mxCell id="NB-tD7L5gZntt5toGxeT-0" value="Responsible: mark.vanbergen" style="text;html=1;resizable=0;autosize=1;align=left;verticalAlign=middle;points=[];fillColor=none;strokeColor=none;rounded=0;fontSize=16;" vertex="1" parent="4rSkHqEDvgj0Sk99-cNi-1">
          <mxGeometry x="-462.5" y="30" width="230" height="20" as="geometry" />
        </mxCell>
        <mxCell id="-jhvTbmzh6505f0dfXLa-0" value="Manufacturing Class: CompositeDetail" style="text;html=1;resizable=0;autosize=1;align=left;verticalAlign=middle;points=[];fillColor=none;strokeColor=none;rounded=0;fontSize=16;" vertex="1" parent="4rSkHqEDvgj0Sk99-cNi-1">
          <mxGeometry x="-1117.5" y="63" width="290" height="20" as="geometry" />
        </mxCell>
        <mxCell id="-jhvTbmzh6505f0dfXLa-1" value="Maturity: IN_WORK" style="text;html=1;resizable=0;autosize=1;align=left;verticalAlign=middle;points=[];fillColor=none;strokeColor=none;rounded=0;fontSize=16;" vertex="1" parent="4rSkHqEDvgj0Sk99-cNi-1">
          <mxGeometry x="-1115" y="100" width="160" height="20" as="geometry" />
        </mxCell>
        <mxCell id="-jhvTbmzh6505f0dfXLa-2" value="Part Type: Assembly" style="text;html=1;resizable=0;autosize=1;align=left;verticalAlign=middle;points=[];fillColor=none;strokeColor=none;rounded=0;fontSize=16;" vertex="1" parent="4rSkHqEDvgj0Sk99-cNi-1">
          <mxGeometry x="-462.5" y="60" width="160" height="20" as="geometry" />
        </mxCell>
        <mxCell id="-jhvTbmzh6505f0dfXLa-3" value="Source: Make" style="text;html=1;resizable=0;autosize=1;align=left;verticalAlign=middle;points=[];fillColor=none;strokeColor=none;rounded=0;fontSize=16;" vertex="1" parent="4rSkHqEDvgj0Sk99-cNi-1">
          <mxGeometry x="-462.5" y="90" width="110" height="20" as="geometry" />
        </mxCell>
        <mxCell id="-jhvTbmzh6505f0dfXLa-4" value="" style="shape=mxgraph.mockup.containers.marginRect;rectMarginTop=10;strokeColor=#666666;strokeWidth=1;dashed=0;rounded=1;arcSize=5;recursiveResize=0;fontSize=16;align=left;" vertex="1" parent="4rSkHqEDvgj0Sk99-cNi-1">
          <mxGeometry x="-1110" y="140" width="510" height="200" as="geometry" />
        </mxCell>
        <mxCell id="-jhvTbmzh6505f0dfXLa-5" value="Mass" style="shape=rect;strokeColor=none;fillColor=#008cff;strokeWidth=1;dashed=0;rounded=1;arcSize=20;fontColor=#ffffff;fontSize=17;spacing=2;spacingTop=-2;align=left;autosize=1;spacingLeft=4;resizeWidth=0;resizeHeight=0;perimeter=none;" vertex="1" parent="-jhvTbmzh6505f0dfXLa-4">
          <mxGeometry x="5" width="60" height="30" as="geometry" />
        </mxCell>
        <mxCell id="4rSkHqEDvgj0Sk99-cNi-27" value="" style="group" vertex="1" connectable="0" parent="-jhvTbmzh6505f0dfXLa-4">
          <mxGeometry x="10" y="40" width="150" height="60" as="geometry" />
        </mxCell>
        <mxCell id="4rSkHqEDvgj0Sk99-cNi-28" value="" style="strokeWidth=1;shadow=0;dashed=0;align=center;html=1;shape=mxgraph.mockup.text.textBox;fontColor=#666666;align=left;fontSize=17;spacingLeft=4;spacingTop=-3;strokeColor=#666666;mainText=" vertex="1" parent="4rSkHqEDvgj0Sk99-cNi-27">
          <mxGeometry y="30" width="150" height="30" as="geometry" />
        </mxCell>
        <mxCell id="4rSkHqEDvgj0Sk99-cNi-29" value="Effective:&amp;nbsp;" style="text;html=1;resizable=0;autosize=1;align=left;verticalAlign=middle;points=[];fillColor=none;strokeColor=none;rounded=0;fontSize=16;" vertex="1" parent="4rSkHqEDvgj0Sk99-cNi-27">
          <mxGeometry width="90" height="20" as="geometry" />
        </mxCell>
        <mxCell id="4rSkHqEDvgj0Sk99-cNi-6" value="" style="group" vertex="1" connectable="0" parent="-jhvTbmzh6505f0dfXLa-4">
          <mxGeometry x="180" y="40" width="150" height="60" as="geometry" />
        </mxCell>
        <mxCell id="4rSkHqEDvgj0Sk99-cNi-7" value="" style="strokeWidth=1;shadow=0;dashed=0;align=center;html=1;shape=mxgraph.mockup.text.textBox;fontColor=#666666;align=left;fontSize=17;spacingLeft=4;spacingTop=-3;strokeColor=#666666;mainText=" vertex="1" parent="4rSkHqEDvgj0Sk99-cNi-6">
          <mxGeometry y="30" width="150" height="30" as="geometry" />
        </mxCell>
        <mxCell id="4rSkHqEDvgj0Sk99-cNi-8" value="Actual:&amp;nbsp;" style="text;html=1;resizable=0;autosize=1;align=left;verticalAlign=middle;points=[];fillColor=none;strokeColor=none;rounded=0;fontSize=16;" vertex="1" parent="4rSkHqEDvgj0Sk99-cNi-6">
          <mxGeometry width="70" height="20" as="geometry" />
        </mxCell>
        <mxCell id="4rSkHqEDvgj0Sk99-cNi-5" value="" style="group" vertex="1" connectable="0" parent="-jhvTbmzh6505f0dfXLa-4">
          <mxGeometry x="340" y="40" width="160" height="60" as="geometry" />
        </mxCell>
        <mxCell id="4rSkHqEDvgj0Sk99-cNi-2" value="" style="strokeWidth=1;shadow=0;dashed=0;align=center;html=1;shape=mxgraph.mockup.text.textBox;fontColor=#666666;align=left;fontSize=17;spacingLeft=4;spacingTop=-3;strokeColor=#666666;mainText=" vertex="1" parent="4rSkHqEDvgj0Sk99-cNi-5">
          <mxGeometry y="30" width="150" height="30" as="geometry" />
        </mxCell>
        <mxCell id="4rSkHqEDvgj0Sk99-cNi-3" value="Catia Imported:&amp;nbsp;" style="text;html=1;resizable=0;autosize=1;align=left;verticalAlign=middle;points=[];fillColor=none;strokeColor=none;rounded=0;fontSize=16;" vertex="1" parent="4rSkHqEDvgj0Sk99-cNi-5">
          <mxGeometry width="130" height="20" as="geometry" />
        </mxCell>
        <mxCell id="4rSkHqEDvgj0Sk99-cNi-12" value="" style="group" vertex="1" connectable="0" parent="-jhvTbmzh6505f0dfXLa-4">
          <mxGeometry x="340" y="120" width="150" height="60" as="geometry" />
        </mxCell>
        <mxCell id="4rSkHqEDvgj0Sk99-cNi-13" value="" style="strokeWidth=1;shadow=0;dashed=0;align=center;html=1;shape=mxgraph.mockup.text.textBox;fontColor=#666666;align=left;fontSize=17;spacingLeft=4;spacingTop=-3;strokeColor=#666666;mainText=" vertex="1" parent="4rSkHqEDvgj0Sk99-cNi-12">
          <mxGeometry y="30" width="150" height="30" as="geometry" />
        </mxCell>
        <mxCell id="4rSkHqEDvgj0Sk99-cNi-14" value="Estimated:" style="text;html=1;resizable=0;autosize=1;align=left;verticalAlign=middle;points=[];fillColor=none;strokeColor=none;rounded=0;fontSize=16;" vertex="1" parent="4rSkHqEDvgj0Sk99-cNi-12">
          <mxGeometry width="90" height="20" as="geometry" />
        </mxCell>
        <mxCell id="4rSkHqEDvgj0Sk99-cNi-18" value="" style="group" vertex="1" connectable="0" parent="-jhvTbmzh6505f0dfXLa-4">
          <mxGeometry x="180" y="120" width="150" height="60" as="geometry" />
        </mxCell>
        <mxCell id="4rSkHqEDvgj0Sk99-cNi-19" value="" style="strokeWidth=1;shadow=0;dashed=0;align=center;html=1;shape=mxgraph.mockup.text.textBox;fontColor=#666666;align=left;fontSize=17;spacingLeft=4;spacingTop=-3;strokeColor=#666666;mainText=" vertex="1" parent="4rSkHqEDvgj0Sk99-cNi-18">
          <mxGeometry y="30" width="150" height="30" as="geometry" />
        </mxCell>
        <mxCell id="4rSkHqEDvgj0Sk99-cNi-20" value="Calculated:&amp;nbsp;" style="text;html=1;resizable=0;autosize=1;align=left;verticalAlign=middle;points=[];fillColor=none;strokeColor=none;rounded=0;fontSize=16;" vertex="1" parent="4rSkHqEDvgj0Sk99-cNi-18">
          <mxGeometry width="100" height="20" as="geometry" />
        </mxCell>
        <mxCell id="-jhvTbmzh6505f0dfXLa-6" value="" style="shape=mxgraph.mockup.containers.marginRect;rectMarginTop=10;strokeColor=#666666;strokeWidth=1;dashed=0;rounded=1;arcSize=5;recursiveResize=0;fontSize=16;align=left;" vertex="1" parent="4rSkHqEDvgj0Sk99-cNi-1">
          <mxGeometry x="-570" y="140" width="155" height="200" as="geometry" />
        </mxCell>
        <mxCell id="-jhvTbmzh6505f0dfXLa-7" value="Center of Gravity" style="shape=rect;strokeColor=none;fillColor=#008cff;strokeWidth=1;dashed=0;rounded=1;arcSize=20;fontColor=#ffffff;fontSize=17;spacing=2;spacingTop=-2;align=left;autosize=1;spacingLeft=4;resizeWidth=0;resizeHeight=0;perimeter=none;" vertex="1" parent="-jhvTbmzh6505f0dfXLa-6">
          <mxGeometry x="5" width="150" height="30" as="geometry" />
        </mxCell>
        <mxCell id="-jhvTbmzh6505f0dfXLa-8" value="" style="shape=mxgraph.mockup.containers.marginRect;rectMarginTop=10;strokeColor=#666666;strokeWidth=1;dashed=0;rounded=1;arcSize=5;recursiveResize=0;fontSize=16;align=left;" vertex="1" parent="4rSkHqEDvgj0Sk99-cNi-1">
          <mxGeometry x="-382" y="140" width="150" height="200" as="geometry" />
        </mxCell>
        <mxCell id="-jhvTbmzh6505f0dfXLa-9" value="Weight Moment" style="shape=rect;strokeColor=none;fillColor=#008cff;strokeWidth=1;dashed=0;rounded=1;arcSize=20;fontColor=#ffffff;fontSize=17;spacing=2;spacingTop=-2;align=left;autosize=1;spacingLeft=4;resizeWidth=0;resizeHeight=0;perimeter=none;" vertex="1" parent="-jhvTbmzh6505f0dfXLa-8">
          <mxGeometry x="5" width="140" height="30" as="geometry" />
        </mxCell>
        <mxCell id="-jhvTbmzh6505f0dfXLa-10" value="" style="shape=mxgraph.mockup.containers.marginRect;rectMarginTop=10;strokeColor=#666666;strokeWidth=1;dashed=0;rounded=1;arcSize=5;recursiveResize=0;fontSize=16;align=left;" vertex="1" parent="4rSkHqEDvgj0Sk99-cNi-1">
          <mxGeometry x="-210" y="140" width="150" height="200" as="geometry" />
        </mxCell>
        <mxCell id="-jhvTbmzh6505f0dfXLa-11" value="Inertia" style="shape=rect;strokeColor=none;fillColor=#008cff;strokeWidth=1;dashed=0;rounded=1;arcSize=20;fontColor=#ffffff;fontSize=17;spacing=2;spacingTop=-2;align=left;autosize=1;spacingLeft=4;resizeWidth=0;resizeHeight=0;perimeter=none;" vertex="1" parent="-jhvTbmzh6505f0dfXLa-10">
          <mxGeometry x="5" width="70" height="30" as="geometry" />
        </mxCell>
      </root>
    </mxGraphModel>
  </diagram>
</mxfile>
